<?xml version="1.0" encoding="utf-8"?>
<!-- Generator: Adobe Illustrator 23.1.0, SVG Export Plug-In . SVG Version: 6.00 Build 0)  -->
<svg version="1.1" id="Layer_1" xmlns="http://www.w3.org/2000/svg" xmlns:xlink="http://www.w3.org/1999/xlink" x="0px" y="0px"
	 viewBox="0 0 200 200" style="enable-background:new 0 0 200 200;" xml:space="preserve">
<style type="text/css">
	.st0{fill:#FFD812;}
</style>
<rect class="st0" width="200" height="200"/>
<path d="M169.3,32.6c-0.6-4.4-2.6-7.9-5.5-9C144,15.9,57.3,16.2,37,23.3c-3.4,1.2-5.5,4.5-6,8c-3.4,20.6-3.5,113.1-0.2,137.2
	c0.6,4.7,2,9.7,4.5,11.1c7,3.7,24.7,3.1,31.4-1.8c1.6-1.1,2.4-4,2.3-8c-0.4-19.3-0.3-92.9,0.1-104.4c0.1-1.3,0.2-2.6,0.4-3.1
	c1.5-3.3,8.7-3.1,9.6,0.5c0.1,0.4,0.2,1.4,0.2,2.8c0.5,11.8,0.5,82.8,0.1,103.4c-0.1,4.7,1,8.1,2.9,9.3c4,2.6,11.1,3.8,17.8,3.8
	c6.9,0,14.2-1.4,18-4.2c1.6-1.1,2.4-4,2.3-8c-0.4-19.3-0.4-92.9,0.1-104.4c0.1-1.3,0.2-2.6,0.4-3.1c1.5-3.3,8.7-3.1,9.6,0.5
	c0.1,0.4,0.2,1.4,0.2,2.8c0.5,11.8,0.5,82.8,0.1,103.4c-0.1,4.7,1,8.1,2.9,9.3c6.7,4.3,22.3,4.9,29.7,1.9c3.4-1.4,5-6.7,5.6-11
	C172.5,146.4,172.5,55.7,169.3,32.6z"/>
</svg>
