<?xml version="1.0" encoding="utf-8"?>
<!-- Generator: Adobe Illustrator 23.1.0, SVG Export Plug-In . SVG Version: 6.00 Build 0)  -->
<svg version="1.1" id="Layer_1" xmlns="http://www.w3.org/2000/svg" xmlns:xlink="http://www.w3.org/1999/xlink" x="0px" y="0px"
	 viewBox="0 0 395.3 164.3" style="enable-background:new 0 0 395.3 164.3;" xml:space="preserve">
<g>
	<path d="M287.4,5.7c-13.4-5.3-60.7-5.4-75.3-0.3c-3.4,1.2-5.5,4.5-6,8c-3.4,20.6-3.5,113.1-0.2,137.2c0.6,4.7,2,9.7,4.5,11.1
		c7,3.7,24.7,3.1,31.4-1.8c1.5-1.1,2.4-4,2.3-8c-0.4-19.3-0.4-92.9,0.1-104.4c0-1.3,0.2-2.6,0.4-3.1c1.5-3.3,8.7-3.1,9.6,0.5
		c0.1,0.4,0.2,1.4,0.2,2.8c0.5,11.8,0.5,82.8,0.1,103.4c-0.1,4.7,1,8.1,2.9,9.3c6.7,4.3,22.3,4.9,29.7,1.9c3.4-1.4,5-6.7,5.6-11
		c3.3-22.7,3.3-113.5,0-136.5C292.2,10.3,290.3,6.9,287.4,5.7z"/>
</g>
<g>
	<path d="M156.9,160.6c6,3.5,25.4,3.6,32.3,0.4c1.9-0.9,3.1-4,3.4-7.8c1.3-17.6,1.3-73.9-0.1-89.2c-0.3-2.9-1.3-5.5-2.9-6.3
		c-6.4-3.4-26-3.4-32.4,0c-1.6,0.9-2.5,2.9-2.7,4.5c-1.7,11.7-1.7,76.4-0.2,92.5C154.6,157.4,155.5,159.8,156.9,160.6z"/>
</g>
<g>
	<path d="M388.4,6c-12.2-5.8-62.1-5.9-75.6-0.3c-2.8,1.1-4.8,3.6-5.4,6.5c-3.4,15.5-3.1,84.9,0.8,96.2c0.4,1.3,1.2,2.8,3.3,3.3
		c7.7,1.7,29.9,0.7,38.5,0.7c2.9,0,5,1,5,4.1c0,3.6-1.2,5.3-4.9,5.3c-8.3,0-27-0.8-36.7,0.8c-3.5,0.6-6,1.4-6.7,3.7
		c-2.4,8.4-2.4,22.4-0.7,28.7c0.8,3,5.2,4.9,10.5,6.2c16,4,54.1,3.9,68.7-0.4c4.4-1.3,6.9-4.8,7.4-7.9c3.6-19.7,3.6-118.4,0.1-139.6
		C392.3,9.9,390.7,7.1,388.4,6z M353.2,73.1c-1.5,0.4-4.1,0.4-5.7,0.1c-1.1-0.2-1.8-1.6-1.9-2.9c-0.3-4.9-0.3-19,0-24.1
		c0.1-1.4,0.7-2.7,1.6-3c1.6-0.4,4.4-0.4,6,0c0.9,0.3,1.5,1.5,1.5,2.8c0.3,4.9,0.3,18.9,0,24C354.8,71.5,354.2,72.8,353.2,73.1z"/>
</g>
<path d="M140.9,14.7c-0.6-4.4-2.6-7.9-5.5-9C115.6-2,28.9-1.7,8.6,5.4c-3.4,1.2-5.5,4.5-6,8C-0.8,34-0.9,126.5,2.4,150.6
	c0.6,4.7,2,9.7,4.5,11.1c7,3.7,24.7,3.1,31.4-1.8c1.6-1.1,2.4-4,2.3-8c-0.4-19.3-0.3-92.9,0.1-104.4c0.1-1.3,0.2-2.6,0.4-3.1
	c1.5-3.3,8.7-3.1,9.6,0.5c0.1,0.4,0.2,1.4,0.2,2.8c0.5,11.8,0.5,82.8,0.1,103.4c-0.1,4.7,1,8.1,2.9,9.3c4,2.6,11.1,3.8,17.8,3.8
	c6.9,0,14.2-1.4,18-4.2c1.6-1.1,2.4-4,2.3-8c-0.4-19.3-0.4-92.9,0.1-104.4c0.1-1.3,0.2-2.6,0.4-3.1c1.5-3.3,8.7-3.1,9.6,0.5
	c0.1,0.4,0.2,1.4,0.2,2.8c0.5,11.8,0.5,82.8,0.1,103.4c-0.1,4.7,1,8.1,2.9,9.3c6.7,4.3,22.3,4.9,29.7,1.9c3.4-1.4,5-6.7,5.6-11
	C144.2,128.5,144.2,37.8,140.9,14.7z"/>
<g>
	<path d="M156.8,42.6c6,3.5,25.4,3.6,32.3,0.4c1.9-0.9,2.9-4,3.4-7.9c1-6.9,0.8-17.9-0.1-24.4c-0.4-2.9-1.3-5.5-2.9-6.4
		c-6.4-3.4-26-3.4-32.4,0c-1.6,0.9-2.5,2.9-2.7,4.5c-0.9,6.9-1.3,20-0.2,27.7C154.6,39.3,155.4,41.7,156.8,42.6z"/>
</g>
</svg>
